<?xml version="1.0" standalone="no"?>
<!DOCTYPE svg PUBLIC "-//W3C//DTD SVG 20010904//EN"
 "http://www.w3.org/TR/2001/REC-SVG-20010904/DTD/svg10.dtd">
<svg version="1.0" xmlns="http://www.w3.org/2000/svg"
 width="640.000000pt" height="640.000000pt" viewBox="0 0 640.000000 640.000000"
 preserveAspectRatio="xMidYMid meet">

<g transform="translate(0.000000,640.000000) scale(0.100000,-0.100000)"
fill="#000000" stroke="none">
<path d="M0 3200 l0 -3200 3200 0 3200 0 0 3200 0 3200 -3200 0 -3200 0 0
-3200z m2167 1958 c5 -7 17 -57 27 -111 20 -117 29 -143 59 -168 65 -56 266
-135 396 -155 24 -3 58 -12 75 -19 29 -12 223 -30 427 -39 48 -2 91 -6 96 -9
11 -7 582 -22 715 -19 48 1 89 -2 92 -7 4 -5 27 -3 53 6 32 9 74 13 123 10 48
-3 85 0 106 9 18 7 74 15 125 18 52 2 110 7 130 11 32 6 37 5 42 -16 4 -13 7
-42 7 -64 0 -22 7 -89 15 -150 46 -332 65 -489 65 -524 0 -44 -18 -64 -58 -63
-15 0 -56 1 -92 2 -36 1 -78 -4 -95 -11 -16 -7 -55 -13 -87 -13 -36 -1 -63 -7
-75 -17 -22 -20 -59 -29 -133 -35 -30 -2 -79 -14 -108 -26 -43 -18 -57 -20
-72 -10 -19 11 -50 7 -50 -7 0 -13 -74 -35 -124 -38 -27 -2 -59 -9 -71 -17
-12 -8 -44 -17 -71 -21 -57 -7 -119 -23 -152 -38 -36 -17 -9 -24 128 -32 69
-4 148 -9 175 -10 104 -7 202 -16 250 -25 28 -4 93 -14 145 -21 52 -7 114 -20
138 -30 l42 -18 0 -61 c0 -63 13 -170 31 -250 5 -25 13 -81 18 -125 5 -44 17
-129 26 -189 23 -150 25 -148 -167 -151 -79 -1 -159 -7 -178 -13 -19 -6 -52
-13 -73 -17 -21 -3 -47 -15 -57 -25 -28 -28 -49 -37 -120 -51 -36 -6 -77 -20
-92 -31 -15 -10 -57 -22 -96 -27 -62 -8 -82 -16 -156 -58 -12 -7 -35 -10 -53
-7 -24 5 -40 0 -65 -19 -36 -27 -112 -67 -126 -67 -24 0 -123 -53 -115 -61 8
-8 146 -20 393 -34 36 -2 119 -9 185 -14 105 -9 269 -19 330 -19 73 -1 142 -4
305 -17 102 -8 210 -15 240 -15 81 -1 233 -21 248 -32 6 -6 12 -32 12 -59 0
-27 8 -91 17 -141 10 -51 16 -111 15 -133 -1 -22 4 -112 10 -200 10 -144 9
-164 -6 -193 -23 -44 -48 -41 -98 14 -48 51 -85 74 -121 74 -14 0 -31 7 -38
16 -10 12 -24 15 -58 10 -27 -4 -49 -2 -58 5 -10 9 -20 9 -41 -1 -15 -7 -40
-14 -57 -15 -16 -2 -34 -4 -40 -6 -5 -1 -28 1 -49 6 -26 5 -46 4 -58 -4 -12
-7 -25 -8 -35 -3 -9 6 -27 5 -45 -2 -23 -8 -31 -8 -37 3 -6 9 -11 10 -15 2 -5
-8 -13 -8 -27 -1 -10 6 -19 8 -19 4 0 -3 -6 -2 -12 3 -21 17 -145 25 -170 12
-19 -10 -25 -8 -48 19 -24 29 -28 30 -42 16 -14 -14 -16 -12 -28 15 -7 17 -17
31 -22 31 -5 0 -6 -5 -2 -12 5 -8 2 -9 -11 -5 -9 4 -24 2 -32 -5 -8 -6 -30
-11 -49 -10 -19 2 -34 -2 -34 -8 0 -13 -67 -13 -75 0 -7 11 -79 4 -111 -11
-11 -6 -42 -9 -69 -7 -43 3 -50 6 -55 28 -8 29 -16 29 -64 -4 -31 -21 -40 -23
-65 -13 -23 9 -34 7 -55 -6 -32 -21 -55 -22 -63 -1 -5 14 -16 15 -60 10 -50
-6 -54 -5 -63 19 -9 24 -10 24 -40 7 -28 -16 -32 -16 -59 -1 -18 11 -33 13
-38 8 -18 -18 -169 -28 -262 -19 -61 7 -99 6 -118 -1 -17 -6 -56 -8 -100 -3
-50 4 -78 3 -87 -5 -10 -9 -20 -9 -41 1 -21 9 -42 9 -96 0 -38 -7 -83 -12 -99
-12 -19 0 -33 -7 -40 -21 -9 -15 -15 -18 -25 -9 -7 6 -27 15 -43 19 -41 12
-197 -11 -221 -33 -9 -9 -20 -14 -22 -12 -2 3 -31 6 -63 7 -48 2 -60 6 -67 23
-12 25 -47 180 -58 256 -15 93 -32 183 -37 192 -7 10 -35 180 -41 245 l-5 52
69 19 c37 11 88 24 113 27 24 4 60 16 80 26 19 10 68 24 109 33 40 8 78 19 84
25 6 6 20 11 32 11 11 0 30 7 41 15 12 7 57 26 100 41 43 15 88 33 99 41 11 7
29 13 40 13 11 0 31 7 43 16 13 9 26 13 29 10 4 -3 15 1 25 11 10 9 33 16 50
15 32 -1 251 99 323 148 20 13 46 20 81 20 40 0 57 5 75 23 13 13 43 29 66 35
23 7 55 23 70 35 16 12 37 27 47 33 11 5 26 20 33 31 14 21 13 21 -28 12 -23
-6 -60 -9 -83 -9 -23 0 -81 -9 -130 -20 -66 -15 -97 -18 -117 -11 -15 5 -30 6
-34 3 -10 -11 -106 -43 -152 -51 -31 -6 -46 -4 -56 6 -12 12 -19 12 -48 0 -45
-20 -135 -35 -151 -26 -22 12 -184 -28 -250 -62 -48 -24 -98 -25 -98 -2 0 9
-4 30 -10 47 -50 162 -71 230 -84 281 -8 33 -38 129 -66 213 -31 91 -50 166
-48 185 3 28 7 33 38 37 31 5 143 52 193 80 52 30 136 70 148 70 30 0 99 31
125 55 15 14 52 33 83 41 31 9 70 25 87 35 17 11 44 19 59 19 15 0 41 11 57
26 54 44 206 110 240 102 20 -4 128 45 128 59 0 7 8 17 19 22 21 11 55 60 48
68 -3 2 -14 0 -25 -6 -13 -7 -22 -7 -30 1 -8 8 -15 8 -25 -1 -24 -19 -131 -17
-163 4 -16 10 -44 20 -64 21 -48 3 -94 15 -101 27 -4 5 -28 11 -54 12 -26 2
-52 8 -58 14 -6 6 -19 11 -28 11 -24 0 -88 42 -89 58 0 6 -6 12 -12 12 -16 0
-54 55 -67 95 -9 28 -31 150 -67 380 -8 55 -19 120 -24 145 -14 73 -12 168 5
200 17 33 27 37 42 18z"/>
</g>
</svg>
